# xmcd
#
# Track frame offsets: 
#        150
#        17295
#        28799
#        43521
#        57833
#        66714
#        78836
#        91187
#        101948
#        113651
#        122914
#        131456
#
# Disc length: 1948 seconds
#
# Revision: 0
# Processed by: cddbd v1.5.2PL0 Copyright (c) Steve Scherf et al.
# Submitted via: ExactAudioCopy v0.95b3
#
DISCID=99079a0c
DTITLE=Richard Bowden - Big Bad Johnson
DYEAR=2002
DGENRE=Comedy
TTITLE0=Im Tired Of The Gay Life
TTITLE1=Trailer Park Woman
TTITLE2=Big Bad Johnson
TTITLE3=Viagra
TTITLE4=Elvis Was A Narc
TTITLE5=Munchies
TTITLE6=Shrinken Problem
TTITLE7=Fat Girl Fart
TTITLE8=Fudge Packers In Disguise
TTITLE9=Since My Baby Turned Gay
TTITLE10=Help Me Make It Through The Yard
TTITLE11=Lets Put The X Back In Christmas
EXTD=
EXTT0=
EXTT1=
EXTT2=
EXTT3=
EXTT4=
EXTT5=
EXTT6=
EXTT7=
EXTT8=
EXTT9=
EXTT10=
EXTT11=
PLAYORDER=
